<svg width="21" height="18" viewBox="0 0 21 18" fill="none" xmlns="http://www.w3.org/2000/svg">
<path d="M2.24439 17.1924C1.82245 17.191 1.41822 17.0178 1.12006 16.7107C0.8219 16.4036 0.654064 15.9875 0.653243 15.5535V10.9413C1.02477 11.1242 1.43137 11.2192 1.84322 11.2193H8.59858C8.70461 11.5857 8.92284 11.9071 9.22078 12.1357C9.51871 12.3642 9.88043 12.4877 10.2521 12.4877C10.6237 12.4877 10.9854 12.3642 11.2834 12.1357C11.5813 11.9071 11.7995 11.5857 11.9056 11.2193H18.6609C19.0733 11.2186 19.4802 11.1229 19.852 10.9392V15.5503C19.8509 15.9842 19.6829 16.4001 19.3848 16.7072C19.0867 17.0142 18.6827 17.1875 18.2608 17.1892L2.24439 17.1924ZM9.26892 10.6623V10.2058C9.26892 10.0734 9.29426 9.94231 9.34352 9.82C9.39277 9.69768 9.46496 9.58654 9.55596 9.49292C9.64697 9.39931 9.75501 9.32505 9.87391 9.27438C9.99282 9.22372 10.1203 9.19764 10.249 9.19764C10.3777 9.19764 10.5051 9.22372 10.624 9.27438C10.7429 9.32505 10.851 9.39931 10.942 9.49292C11.033 9.58654 11.1052 9.69768 11.1544 9.82C11.2037 9.94231 11.229 10.0734 11.229 10.2058V10.6623C11.229 10.7947 11.2037 10.9258 11.1544 11.0481C11.1052 11.1704 11.033 11.2816 10.942 11.3752C10.851 11.4688 10.7429 11.5431 10.624 11.5937C10.5051 11.6444 10.3777 11.6705 10.249 11.6705C10.1203 11.6705 9.99282 11.6444 9.87391 11.5937C9.75501 11.5431 9.64697 11.4688 9.55596 11.3752C9.46496 11.2816 9.39277 11.1704 9.34352 11.0481C9.29426 10.9258 9.26892 10.7947 9.26892 10.6623ZM11.9773 9.99412C11.9571 9.53822 11.7669 9.10786 11.4462 8.79245C11.4379 8.78283 11.4254 8.77641 11.4161 8.76679C11.3481 8.70075 11.2751 8.64034 11.1978 8.58611C11.1677 8.56687 11.1365 8.55404 11.1074 8.53693C11.0447 8.49624 10.979 8.4605 10.911 8.43002C10.8552 8.40867 10.7983 8.39047 10.7405 8.3755C10.6907 8.35946 10.6439 8.34022 10.5919 8.32846C10.4786 8.30529 10.3634 8.29348 10.2479 8.29318C10.1324 8.29261 10.0171 8.30443 9.90392 8.32846C9.85428 8.34139 9.80536 8.35709 9.75738 8.3755C9.69918 8.3926 9.63994 8.40543 9.58486 8.42895C9.51734 8.46048 9.45175 8.49618 9.38843 8.53586C9.35829 8.55297 9.32711 8.5658 9.29905 8.58504C9.22123 8.63893 9.14788 8.69936 9.07977 8.76572C9.06937 8.77534 9.05794 8.78176 9.04859 8.79138C8.72842 9.10649 8.53891 9.5366 8.51959 9.99198H1.84322C1.42103 9.99198 1.01611 9.8196 0.717379 9.51271C0.418651 9.20581 0.250551 8.78949 0.25 8.35519L0.25 4.5759C0.26009 4.13212 0.440771 3.71054 0.752457 3.40354C1.06414 3.09654 1.48142 2.92914 1.91286 2.93803H5.73015C5.84436 2.20722 6.20753 1.54203 6.75474 1.06138C7.30195 0.580737 7.99751 0.315981 8.71705 0.314453L11.7788 0.314453C12.4985 0.315728 13.1943 0.580369 13.7417 1.06104C14.2892 1.54171 14.6525 2.20704 14.7667 2.93803H18.5871C19.0186 2.92914 19.4359 3.09654 19.7475 3.40354C20.0592 3.71054 20.2399 4.13212 20.25 4.5759V8.35625C20.2497 8.79056 20.0819 9.20699 19.7834 9.51409C19.4848 9.82119 19.08 9.99384 18.6578 9.99412H11.9773ZM7.26309 2.93803H13.2348C13.1345 2.622 12.94 2.34652 12.6788 2.15075C12.4175 1.95499 12.103 1.84889 11.7798 1.84755H8.71705C8.39394 1.84863 8.07941 1.95464 7.81832 2.15046C7.55723 2.34628 7.36292 2.62191 7.26309 2.93803Z" fill="#707793"/>
</svg>
