<svg width="26" height="23" viewBox="0 0 26 23" fill="none" xmlns="http://www.w3.org/2000/svg">
<path d="M12.5633 0.761254C12.448 0.8214 12.3327 0.936681 12.2725 1.05697C12.1773 1.24242 12.1723 1.34768 12.1723 2.73605C12.1723 4.12442 12.1773 4.22968 12.2725 4.41513C12.3878 4.64068 12.6735 4.8161 12.9241 4.8161C13.1647 4.8161 13.4404 4.6507 13.5657 4.42515C13.6709 4.22968 13.676 4.18457 13.676 2.74106C13.676 1.34768 13.6709 1.24242 13.5757 1.05697C13.3903 0.691084 12.9392 0.560768 12.5633 0.761254Z" fill="#01176E"/>
<path d="M7.18519 2.98678C6.80928 3.12211 6.61381 3.49802 6.71405 3.88897C6.75916 4.05437 6.94962 4.26989 7.80169 5.13199C8.91439 6.24469 9.07979 6.36498 9.44067 6.29982C9.68126 6.25471 9.95191 6.0041 10.0221 5.76352C10.1424 5.37257 10.0622 5.24727 8.97454 4.1496C8.42821 3.60327 7.92198 3.11709 7.83678 3.06697C7.61624 2.93164 7.41074 2.90658 7.18519 2.98678Z" fill="#01176E"/>
<path d="M18.1669 2.98666C18.0216 3.03678 17.7008 3.32247 16.969 4.04924C15.9916 5.02661 15.7811 5.28724 15.7811 5.54286C15.7811 5.87367 16.0818 6.23454 16.4076 6.2997C16.7585 6.36486 16.9038 6.26462 17.9514 5.22209C18.4977 4.68077 18.9889 4.16452 19.044 4.0743C19.4149 3.48787 18.8185 2.75109 18.1669 2.98666Z" fill="#01176E"/>
<path d="M8.57351 8.35975C8.48329 8.40486 8.36801 8.50009 8.31789 8.57026C8.26776 8.64043 7.81166 10.0188 7.31044 11.6327C6.80922 13.2466 6.38319 14.5949 6.37316 14.625C6.35311 14.6751 7.68134 14.6901 12.9241 14.6901C18.6981 14.6901 19.495 14.6801 19.47 14.6149C19.4549 14.5748 19.0489 13.2717 18.5678 11.7229C18.0816 10.1691 17.6405 8.80584 17.5854 8.69056C17.5202 8.5452 17.425 8.44997 17.2897 8.37479C17.0892 8.27455 17.014 8.27455 12.914 8.27455C9.16995 8.27455 8.72387 8.28457 8.57351 8.35975Z" fill="#01176E"/>
<path d="M0.950047 18.9856C0.0227953 21.9728 0.0177831 21.9879 0.238319 22.2986C0.468879 22.6294 0.113014 22.6094 6.20781 22.6094C11.0446 22.6094 11.7463 22.5994 11.8716 22.5342C12.0269 22.454 12.1723 22.2285 12.1723 22.0731C12.1723 21.9929 11.6611 20.3339 10.5634 16.8304L10.3629 16.1938H6.09253H1.82216L0.950047 18.9856Z" fill="#01176E"/>
<path d="M15.2348 16.9807C14.4228 19.5469 13.676 21.9829 13.676 22.0681C13.676 22.2284 13.8213 22.454 13.9767 22.5342C14.102 22.5994 14.8037 22.6094 19.6405 22.6094C25.0737 22.6094 25.1589 22.6094 25.3544 22.5091C25.5649 22.4039 25.7553 22.1132 25.7553 21.8976C25.7603 21.8325 25.3694 20.5243 24.8932 18.9906L24.0261 16.1938H19.7558H15.4854L15.2348 16.9807Z" fill="#01176E"/>
</svg>
