<svg width="26" height="26" viewBox="0 0 26 26" fill="none" xmlns="http://www.w3.org/2000/svg">
<path d="M11.7193 0.47039C6.01653 1.22192 1.5341 5.7898 0.894595 11.5085C0.818323 12.2013 0.818323 13.5693 0.900462 14.2856C1.0178 15.3483 1.38743 16.8161 1.75705 17.644L1.89786 17.961L4.96046 14.8962C6.64431 13.2111 8.0524 11.8314 8.08174 11.8314C8.11107 11.8314 8.92659 12.6181 9.88292 13.5752L11.6313 15.3248L13.6085 13.3403L15.5916 11.3617L14.4768 10.2461L13.3621 9.13058H16.4892H19.6105V12.2424C19.6105 14.996 19.587 15.5362 19.4814 15.3072C19.4697 15.2837 18.9827 14.7905 18.3902 14.2093L17.3223 13.1524L14.4592 16.0176L11.602 18.877L9.84185 17.1156L8.08174 15.3542L5.63518 17.8025L3.18861 20.245L3.46437 20.6031C3.89266 21.1492 4.74338 22.024 5.32422 22.5113C7.14888 24.0378 9.48983 25.0418 11.9247 25.3354C12.57 25.4117 14.0075 25.4117 14.7291 25.3295C19.5108 24.807 23.6588 21.4603 25.1842 16.8925C26.2344 13.7572 26.0115 10.3459 24.574 7.39854C22.6907 3.55283 18.9475 0.904867 14.7291 0.446905C13.9781 0.364706 12.4527 0.37645 11.7193 0.47039Z" fill="#01176E"/>
</svg>
