<svg width="35" height="40" viewBox="0 0 35 40" fill="none" xmlns="http://www.w3.org/2000/svg">
<path d="M9.06731 20.9398C8.58597 20.9342 8.12597 20.7346 7.78616 20.3838C7.44635 20.0331 7.25384 19.5592 7.25 19.0641V18.9541H23.2493V19.0641C23.2551 19.306 23.2142 19.5467 23.1291 19.7723C23.0441 19.9979 22.9164 20.204 22.7535 20.3786C22.5906 20.5532 22.3958 20.693 22.1802 20.7897C21.9645 20.8865 21.7324 20.9384 21.4972 20.9425L9.06731 20.9398ZM7.25 16.8467V11.8886C7.25251 11.3937 7.44482 10.9198 7.78511 10.5699C8.1254 10.22 8.58619 10.0224 9.06731 10.02H21.5016C21.736 10.0234 21.9674 10.0745 22.1824 10.1705C22.3975 10.2665 22.5919 10.4054 22.7545 10.5791C22.917 10.7529 23.0444 10.9581 23.1294 11.1829C23.2143 11.4077 23.2551 11.6475 23.2493 11.8886V16.8458L7.25 16.8467ZM11.5976 15.1588C11.9487 15.1588 12.2855 15.0153 12.5337 14.7599C12.782 14.5045 12.9215 14.1581 12.9215 13.797C12.9215 13.4358 12.782 13.0894 12.5337 12.834C12.2855 12.5786 11.9487 12.4351 11.5976 12.4351C11.2633 12.4356 10.9426 12.5719 10.7055 12.8144C10.467 12.5718 10.1453 12.4355 9.80989 12.4351C9.46488 12.4442 9.13698 12.5916 8.89609 12.8458C8.6552 13.1001 8.52039 13.441 8.52039 13.7961C8.52039 14.1511 8.6552 14.4921 8.89609 14.7463C9.13698 15.0005 9.46488 15.1479 9.80989 15.157C10.145 15.1563 10.4663 15.0193 10.7038 14.776C10.8209 14.8971 10.9602 14.9933 11.1136 15.059C11.267 15.1247 11.4315 15.1586 11.5976 15.1588ZM24.9971 12.0058L25.4962 11.4932C25.5878 11.3998 25.6419 11.2743 25.6475 11.1417C25.6484 11.0105 25.599 10.8842 25.5101 10.7902L16.7165 1.52251C16.6733 1.47655 16.6214 1.44021 16.5639 1.41574C16.5065 1.39128 16.4448 1.37921 16.3826 1.38029C16.3201 1.38133 16.2584 1.39515 16.201 1.42095C16.1437 1.44675 16.0919 1.48401 16.0487 1.53056L13.3184 4.41972L17.7895 9.16044H14.8914L11.8707 5.95017L11.2342 6.59956C11.145 6.69601 11.0954 6.82421 11.0959 6.95735C11.0957 7.09257 11.145 7.22291 11.2342 7.3223L12.9532 9.15776H11.1124L10.3142 8.2928C9.98073 7.93353 9.79465 7.45589 9.79465 6.95914C9.79465 6.46239 9.98073 5.98474 10.3142 5.62548L15.1279 0.549324C15.2902 0.375632 15.4849 0.237445 15.7004 0.14305C15.9158 0.0486563 16.1476 0 16.3818 0C16.616 0 16.8477 0.0486563 17.0632 0.14305C17.2787 0.237445 17.4734 0.375632 17.6356 0.549324L26.4266 9.81788C26.7585 10.1742 26.9429 10.6492 26.9408 11.1427C26.9387 11.6362 26.7502 12.1096 26.4153 12.4628L24.9953 13.9459L24.9971 12.0058Z" fill="#707793"/>
<path d="M5.29716 35.108C4.41716 35.108 3.64916 34.928 2.99316 34.568C2.34516 34.208 1.84516 33.7 1.49316 33.044C1.14916 32.388 0.977156 31.628 0.977156 30.764C0.977156 29.9 1.14916 29.144 1.49316 28.496C1.84516 27.84 2.34516 27.332 2.99316 26.972C3.64916 26.612 4.41716 26.432 5.29716 26.432C5.84916 26.432 6.38116 26.516 6.89316 26.684C7.41316 26.852 7.83716 27.076 8.16516 27.356L7.48116 28.916C6.78516 28.428 6.07316 28.184 5.34516 28.184C4.65716 28.184 4.12916 28.4 3.76116 28.832C3.40116 29.264 3.22116 29.908 3.22116 30.764C3.22116 31.62 3.40116 32.268 3.76116 32.708C4.12916 33.14 4.65716 33.356 5.34516 33.356C6.07316 33.356 6.78516 33.112 7.48116 32.624L8.16516 34.184C7.83716 34.464 7.41316 34.688 6.89316 34.856C6.38116 35.024 5.84916 35.108 5.29716 35.108ZM11.9448 28.952C12.8728 28.952 13.5568 29.168 13.9968 29.6C14.4448 30.024 14.6688 30.688 14.6688 31.592V35H12.6648V34.172C12.5528 34.46 12.3648 34.688 12.1008 34.856C11.8368 35.016 11.5208 35.096 11.1528 35.096C10.7448 35.096 10.3768 35.016 10.0488 34.856C9.72078 34.688 9.46078 34.46 9.26878 34.172C9.08478 33.876 8.99278 33.544 8.99278 33.176C8.99278 32.752 9.10078 32.416 9.31678 32.168C9.54078 31.912 9.89278 31.728 10.3728 31.616C10.8528 31.504 11.5008 31.448 12.3168 31.448H12.6408V31.304C12.6408 31.008 12.5728 30.804 12.4368 30.692C12.3008 30.572 12.0608 30.512 11.7168 30.512C11.4448 30.512 11.1288 30.568 10.7688 30.68C10.4168 30.784 10.0848 30.92 9.77278 31.088L9.23278 29.684C9.57678 29.476 10.0048 29.304 10.5168 29.168C11.0368 29.024 11.5128 28.952 11.9448 28.952ZM11.6568 33.668C11.9448 33.668 12.1808 33.568 12.3648 33.368C12.5488 33.16 12.6408 32.896 12.6408 32.576V32.432H12.4488C11.9368 32.432 11.5728 32.48 11.3568 32.576C11.1408 32.664 11.0328 32.816 11.0328 33.032C11.0328 33.216 11.0888 33.368 11.2008 33.488C11.3208 33.608 11.4728 33.668 11.6568 33.668ZM20.5939 30.692L19.4299 30.812C18.9659 30.86 18.6419 30.984 18.4579 31.184C18.2739 31.384 18.1819 31.668 18.1819 32.036V35H16.0459V29.096H18.0739V30.116C18.2099 29.756 18.4339 29.484 18.7459 29.3C19.0579 29.108 19.4379 29 19.8859 28.976L20.4739 28.928L20.5939 30.692ZM27.388 26.54V35H25.288V34.196C25.12 34.476 24.872 34.696 24.544 34.856C24.224 35.016 23.868 35.096 23.476 35.096C22.972 35.096 22.52 34.968 22.12 34.712C21.728 34.448 21.42 34.08 21.196 33.608C20.972 33.136 20.86 32.596 20.86 31.988C20.86 31.38 20.968 30.848 21.184 30.392C21.408 29.928 21.716 29.572 22.108 29.324C22.508 29.076 22.964 28.952 23.476 28.952C23.852 28.952 24.196 29.028 24.508 29.18C24.828 29.332 25.076 29.536 25.252 29.792V26.54H27.388ZM24.124 33.5C24.5 33.5 24.788 33.372 24.988 33.116C25.188 32.86 25.288 32.492 25.288 32.012C25.288 31.54 25.188 31.18 24.988 30.932C24.788 30.676 24.5 30.548 24.124 30.548C23.756 30.548 23.472 30.672 23.272 30.92C23.072 31.168 22.972 31.524 22.972 31.988C22.972 32.468 23.072 32.84 23.272 33.104C23.48 33.368 23.764 33.5 24.124 33.5ZM31.192 35.096C30.624 35.096 30.1 35.036 29.62 34.916C29.14 34.796 28.736 34.62 28.408 34.388L28.948 32.936C29.268 33.144 29.632 33.312 30.04 33.44C30.448 33.56 30.84 33.62 31.216 33.62C31.448 33.62 31.628 33.588 31.756 33.524C31.884 33.452 31.948 33.356 31.948 33.236C31.948 33.132 31.9 33.052 31.804 32.996C31.716 32.94 31.532 32.88 31.252 32.816L30.304 32.6C29.704 32.464 29.272 32.264 29.008 32C28.744 31.736 28.612 31.36 28.612 30.872C28.612 30.496 28.724 30.164 28.948 29.876C29.172 29.58 29.484 29.352 29.884 29.192C30.292 29.032 30.752 28.952 31.264 28.952C31.688 28.952 32.108 29.016 32.524 29.144C32.948 29.264 33.332 29.436 33.676 29.66L33.124 31.052C32.804 30.852 32.48 30.7 32.152 30.596C31.832 30.484 31.528 30.428 31.24 30.428C31.008 30.428 30.828 30.464 30.7 30.536C30.572 30.608 30.508 30.712 30.508 30.848C30.508 30.928 30.548 30.996 30.628 31.052C30.708 31.1 30.848 31.148 31.048 31.196L32.044 31.424C32.668 31.56 33.12 31.772 33.4 32.06C33.68 32.34 33.82 32.724 33.82 33.212C33.82 33.796 33.584 34.256 33.112 34.592C32.648 34.928 32.008 35.096 31.192 35.096Z" fill="#707793"/>
</svg>
