<svg width="19" height="25" viewBox="0 0 19 25" fill="none" xmlns="http://www.w3.org/2000/svg">
<path d="M9.48908 0.484944C9.29953 0.582276 7.62952 2.46744 7.27605 2.9746C6.44617 4.18869 6.34884 5.82796 7.02504 7.18549C7.25044 7.63629 7.40924 7.84632 8.3006 8.88112C9.35076 10.0901 9.50957 10.2335 9.84767 10.2335C10.1858 10.2335 10.3446 10.0901 11.3896 8.88112C12.2041 7.93853 12.4603 7.60555 12.6447 7.25209C13.3158 5.95091 13.2645 4.34237 12.5166 3.13852C12.2656 2.73383 10.488 0.653995 10.278 0.51568C10.0833 0.392735 9.70423 0.372244 9.48908 0.484944Z" fill="#01176E"/>
<path d="M1.31833 8.66593C1.1083 8.75814 0.893145 9.0194 0.857285 9.22943C0.836795 9.32164 0.831672 10.0849 0.84704 10.9302C0.867531 12.6463 0.893145 12.8051 1.24149 13.5428C1.63082 14.3573 2.28653 15.0181 3.11129 15.4331C3.46476 15.6124 3.88995 15.7353 5.85708 16.2271C7.732 16.6933 8.21866 16.8008 8.37747 16.7701C8.62848 16.724 8.91023 16.473 8.98195 16.2373C9.01781 16.1093 9.02806 15.5253 9.01781 14.4854C8.9922 12.7385 8.96658 12.5848 8.61824 11.842C8.21866 11.0121 7.54246 10.3308 6.70233 9.92613C6.37448 9.76732 5.8161 9.60852 4.02314 9.16284C2.77319 8.85035 1.69229 8.59421 1.61545 8.59421C1.53349 8.59934 1.4003 8.63007 1.31833 8.66593Z" fill="#01176E"/>
<path d="M15.6056 9.17308C13.8434 9.61876 13.2645 9.78781 12.9622 9.9415C12.1375 10.3462 11.4715 11.0224 11.0771 11.842C10.7287 12.5848 10.7031 12.7385 10.6775 14.4854C10.6673 15.5253 10.6775 16.1093 10.7134 16.2373C10.7851 16.473 11.0668 16.724 11.3178 16.7701C11.4766 16.8008 11.9633 16.6933 13.8382 16.2271C16.3842 15.5919 16.6609 15.4894 17.3217 14.972C17.9672 14.4649 18.5255 13.5991 18.7458 12.7692C18.8278 12.4568 18.838 12.2006 18.838 10.7611C18.838 9.17821 18.8329 9.10649 18.7304 8.9733C18.6741 8.89646 18.5665 8.78376 18.4948 8.73253C18.2233 8.52762 18.0081 8.55836 15.6056 9.17308Z" fill="#01176E"/>
<path d="M1.31833 16.8623C1.1083 16.9546 0.893145 17.2158 0.857285 17.4258C0.836795 17.5181 0.831672 18.2813 0.84704 19.1266C0.867531 20.8427 0.893145 21.0015 1.24149 21.7392C1.63082 22.5537 2.28653 23.2145 3.11129 23.6295C3.46476 23.8088 3.88995 23.9317 5.85708 24.4235C7.732 24.8897 8.21866 24.9973 8.37747 24.9665C8.62848 24.9204 8.91023 24.6694 8.98195 24.4338C9.01781 24.3057 9.02806 23.7217 9.01781 22.6818C8.9922 20.9349 8.96658 20.7812 8.61824 20.0384C8.21866 19.2086 7.54246 18.5272 6.70233 18.1225C6.37448 17.9637 5.8161 17.8049 4.02314 17.3593C2.77319 17.0468 1.69229 16.7906 1.61545 16.7906C1.53349 16.7957 1.4003 16.8265 1.31833 16.8623Z" fill="#01176E"/>
<path d="M15.6056 17.3695C13.8434 17.8152 13.2645 17.9842 12.9622 18.1379C12.1375 18.5426 11.4715 19.2188 11.0771 20.0384C10.7287 20.7812 10.7031 20.9349 10.6775 22.6818C10.6673 23.7217 10.6775 24.3057 10.7134 24.4338C10.7851 24.6694 11.0668 24.9204 11.3178 24.9665C11.4766 24.9973 11.9633 24.8897 13.8382 24.4235C16.3842 23.7883 16.6609 23.6858 17.3217 23.1684C17.9672 22.6613 18.5255 21.7955 18.7458 20.9657C18.8278 20.6532 18.838 20.397 18.838 18.9575C18.838 17.3746 18.8329 17.3029 18.7304 17.1697C18.6741 17.0929 18.5665 16.9802 18.4948 16.9289C18.2233 16.724 18.0081 16.7548 15.6056 17.3695Z" fill="#01176E"/>
</svg>
