<svg width="26" height="26" viewBox="0 0 26 26" fill="none" xmlns="http://www.w3.org/2000/svg">
<path d="M12.3016 0.467493C9.84662 0.691145 7.66211 1.53374 5.70125 3.00049C5.0615 3.479 3.84961 4.69088 3.3711 5.33064C2.32565 6.72456 1.59748 8.22771 1.19699 9.82449C0.910921 10.9636 0.838104 11.6033 0.838104 12.9192C0.838104 14.2455 0.90572 14.8333 1.19699 16.0035C2.30485 20.4142 5.80007 23.9094 10.2159 25.0121C11.1521 25.2461 11.8439 25.3449 12.8217 25.3865C18.1634 25.5998 23.0525 22.3646 24.9666 17.3403C25.8508 15.0205 26.0068 12.3627 25.3983 9.90251C24.5297 6.36048 22.1007 3.33857 18.8291 1.73659C17.6068 1.13845 16.4158 0.763962 15.1103 0.566315C14.5849 0.488297 12.7853 0.425882 12.3016 0.467493ZM11.1989 4.70129C11.5214 4.84692 11.6202 5.09658 11.6254 5.75193V6.26165H12.4576H13.2898V5.76754C13.2898 5.1798 13.3574 4.98215 13.6331 4.7741C13.7943 4.64927 13.8776 4.62327 14.122 4.62327C14.3665 4.62327 14.4497 4.64927 14.6109 4.7741C14.8918 4.98735 14.9542 5.1746 14.9542 5.80915V6.35007L15.2559 6.41769C15.9789 6.57373 16.7226 6.99503 17.248 7.54635C17.6641 7.97806 17.9189 8.39415 18.1062 8.94028C18.2362 9.30437 18.2518 9.4344 18.2518 9.98053C18.2518 10.5215 18.231 10.6567 18.1166 11C17.9137 11.5825 17.6433 12.009 17.1647 12.4875L16.7434 12.9192L17.1647 13.3457C17.6433 13.8294 17.9137 14.2559 18.1166 14.8385C18.231 15.1817 18.2518 15.317 18.2518 15.8579C18.2518 16.404 18.2362 16.5341 18.1062 16.8982C17.6745 18.1464 16.5562 19.1347 15.2559 19.4207L14.9542 19.4884V19.9981C14.9542 20.5754 14.9126 20.7315 14.6838 20.9655C14.3665 21.2932 13.9556 21.314 13.6175 21.0175C13.3522 20.7887 13.2898 20.5962 13.2898 20.0449V19.5768H12.4628H11.6358L11.615 20.1385C11.5994 20.669 11.589 20.7158 11.4486 20.8979C11.1053 21.3504 10.4812 21.3504 10.1379 20.8979C9.99746 20.7158 9.98705 20.669 9.97145 20.1385L9.95064 19.5768H9.46173C8.87919 19.5768 8.68155 19.5092 8.4735 19.2335C8.34867 19.0723 8.32266 18.989 8.32266 18.7446C8.32266 18.5001 8.34867 18.4169 8.4735 18.2557C8.68155 17.98 8.87919 17.9124 9.46693 17.9124H9.96105V15.8319V13.7514H9.46693C8.87919 13.7514 8.68155 13.6838 8.4735 13.4081C8.34867 13.2469 8.32266 13.1637 8.32266 12.9192C8.32266 12.6748 8.34867 12.5915 8.4735 12.4303C8.68155 12.1546 8.87919 12.087 9.46693 12.087H9.96105V10.0065V7.92604H9.45653C8.79597 7.92084 8.54631 7.82202 8.40068 7.49954C8.19263 7.04184 8.33827 6.54252 8.72316 6.36568C8.8948 6.28766 9.06644 6.26165 9.45653 6.26165H9.96105V5.75193C9.96625 5.09658 10.0651 4.84692 10.3875 4.70129C10.5124 4.64407 10.6944 4.59726 10.7932 4.59726C10.8921 4.59726 11.0741 4.64407 11.1989 4.70129Z" fill="#01176E"/>
<path d="M11.6254 10.0118V12.0975L13.1753 12.0767C14.6941 12.0559 14.7253 12.0559 15.079 11.9207C15.7447 11.6658 16.1765 11.2965 16.4521 10.7348C16.5717 10.4904 16.5925 10.3811 16.5925 10.0066C16.5925 9.62175 16.5717 9.52293 16.4417 9.25247C16.14 8.63872 15.4119 8.1186 14.6733 7.98337C14.5017 7.95216 13.7475 7.92616 12.9933 7.92616H11.6254V10.0118Z" fill="#01176E"/>
<path d="M11.6254 15.8372V17.9229L13.1753 17.902C14.6941 17.8812 14.7253 17.8812 15.079 17.746C15.7447 17.4912 16.1765 17.1219 16.4521 16.5601C16.5717 16.3157 16.5925 16.2064 16.5925 15.832C16.5925 15.4471 16.5717 15.3482 16.4417 15.0778C16.14 14.464 15.4119 13.9439 14.6733 13.8087C14.5017 13.7775 13.7475 13.7515 12.9933 13.7515H11.6254V15.8372Z" fill="#01176E"/>
</svg>
