<svg width="16" height="20" viewBox="0 0 16 20" fill="none" xmlns="http://www.w3.org/2000/svg">
<path d="M10.0932 19.9778L1.98087 16.7347C1.93357 16.7157 1.89194 16.6844 1.86018 16.6436C1.82842 16.6029 1.80764 16.5543 1.79994 16.5027C1.79224 16.4511 1.79788 16.3984 1.8163 16.3497C1.83472 16.3011 1.86527 16.2583 1.90488 16.2256L8.69092 10.6192C8.73022 10.5865 8.77725 10.565 8.82722 10.557C8.8772 10.549 8.92834 10.5548 8.97544 10.5738C9.02271 10.5927 9.06432 10.6241 9.09611 10.6648C9.1279 10.7055 9.14875 10.754 9.15658 10.8056L9.48704 13.0134C9.66376 12.9443 9.84844 12.8689 10.0349 12.7825C11.1939 12.2417 12.2337 11.4639 13.0912 10.4965C13.5666 9.96736 13.9945 9.39512 14.3698 8.78678C14.6475 8.34976 14.8859 7.88762 15.082 7.40608C15.1065 7.34093 15.1525 7.28676 15.212 7.25313C15.2715 7.2195 15.3406 7.20857 15.4072 7.22226C15.4738 7.23596 15.5335 7.27341 15.5759 7.32799C15.6182 7.38258 15.6404 7.4508 15.6387 7.52061C15.6179 8.0738 15.5481 8.62388 15.4301 9.164C15.1708 10.4799 14.7122 11.7457 14.0712 12.9152C13.6998 13.5884 13.2723 14.227 12.7935 14.824C12.3156 15.4173 11.7829 15.9616 11.203 16.4492C10.869 16.7219 10.5915 16.9428 10.3291 17.1319C10.2602 17.1819 10.1895 17.2273 10.1224 17.2718L10.4758 19.6578C10.4835 19.7094 10.478 19.7621 10.4597 19.8107C10.4413 19.8593 10.4109 19.9021 10.3714 19.9348C10.332 19.9675 10.2848 19.9889 10.2347 19.9969C10.1847 20.005 10.1334 19.9993 10.0861 19.9805L10.0932 19.9778ZM0.322353 12.7744C0.256273 12.7604 0.196994 12.7232 0.154735 12.6691C0.112476 12.615 0.0898831 12.5474 0.0908501 12.478C0.111898 11.9249 0.181694 11.3748 0.29938 10.8346C0.557962 9.51826 1.01658 8.25202 1.65836 7.0825C2.02941 6.41146 2.45694 5.77518 2.93604 5.18097C3.41352 4.58728 3.94621 4.04296 4.52652 3.55576C4.86052 3.28308 5.13797 3.0622 5.39951 2.87223C5.46932 2.82224 5.53912 2.77679 5.60716 2.73225L5.24754 0.341712C5.23987 0.290263 5.24551 0.237643 5.26389 0.18915C5.28228 0.140656 5.31275 0.097999 5.35225 0.0654721C5.39176 0.0329452 5.43889 0.0116959 5.48891 0.00386293C5.53894 -0.00397009 5.59008 0.00188954 5.6372 0.0208521L13.7495 3.26308C13.7968 3.28185 13.8385 3.31313 13.8703 3.35376C13.9021 3.3944 13.9229 3.44294 13.9306 3.49449C13.9383 3.54605 13.9326 3.59878 13.9142 3.64736C13.8957 3.69594 13.8652 3.73866 13.8255 3.77119L7.03947 9.37851C6.99994 9.41096 6.95281 9.43217 6.9028 9.44C6.8528 9.44784 6.80167 9.44204 6.75452 9.42318C6.70738 9.40431 6.66588 9.37305 6.63417 9.33251C6.60246 9.29197 6.58165 9.24358 6.57382 9.19217L6.24247 6.98433C6.06575 7.05341 5.88108 7.12885 5.69464 7.21429C4.53562 7.75548 3.49574 8.53357 2.63827 9.50122C2.16293 10.0302 1.73528 10.6024 1.36058 11.211C1.08229 11.6481 0.843602 12.1105 0.647518 12.5926C0.631969 12.6328 0.608115 12.6691 0.577603 12.6989C0.547092 12.7287 0.510651 12.7513 0.470798 12.7653C0.442316 12.7752 0.412497 12.7804 0.382438 12.7807C0.36225 12.7807 0.342113 12.7786 0.322353 12.7744Z" fill="#707793"/>
</svg>
